HIERARCHY
ROOT Hips
{
  OFFSET 5.80788e-005 67.184 3.4734
  CHANNELS 6 Xposition Yposition Zposition Zrotation Xrotation Yrotation
  JOINT Chest
  {
    OFFSET 0 8.7983 -4.7612
    CHANNELS 3 Zrotation Xrotation Yrotation
    JOINT Chest2
    {
      OFFSET 0 8.0291 0.4195
      CHANNELS 3 Zrotation Xrotation Yrotation
      JOINT Chest3
      {
        OFFSET 0 9.9351 -2.2114
        CHANNELS 3 Zrotation Xrotation Yrotation
        JOINT Neck
        {
          OFFSET 0 22.3885 -0.4656
          CHANNELS 3 Zrotation Xrotation Yrotation
          JOINT Head
          {
            OFFSET -0.0001 12.643 3.4389
            CHANNELS 3 Zrotation Xrotation Yrotation
            End Site
            {
              OFFSET 0.0001 17.6655 0.5274
            }
          }
        }
        JOINT LeftCollar
        {
          OFFSET 2.2603 21.606 7.4023
          CHANNELS 3 Zrotation Xrotation Yrotation
          JOINT LeftShoulder
          {
            OFFSET 13.5163 -1.1332 -5.0146
            CHANNELS 3 Zrotation Xrotation Yrotation
            JOINT LeftElbow
            {
              OFFSET -0.0995 -28.05 -0.2431
              CHANNELS 3 Zrotation Xrotation Yrotation
              JOINT LeftWrist
              {
                OFFSET 0.0679 -23.3996 -0.1402
                CHANNELS 3 Zrotation Xrotation Yrotation
                JOINT LeftFinger1
                {
                  OFFSET 0.7932 -9.069 2.5189
                  CHANNELS 3 Zrotation Xrotation Yrotation
                  JOINT LeftFinger11
                  {
                    OFFSET -0.8272 -3.3923 0.5977
                    CHANNELS 3 Zrotation Xrotation Yrotation
                    JOINT LeftFinger12
                    {
                      OFFSET -0.5649 -2.3158 0.4082
                      CHANNELS 3 Zrotation Xrotation Yrotation
                      End Site
                      {
                        OFFSET -0.4919 -1.6479 0.2673
                      }
                    }
                  }
                }
                JOINT LeftFinger2
                {
                  OFFSET 0.9159 -9.2044 0.2193
                  CHANNELS 3 Zrotation Xrotation Yrotation
                  JOINT LeftFinger21
                  {
                    OFFSET 0.0117 -4.1944 -0.0248
                    CHANNELS 3 Zrotation Xrotation Yrotation
                    JOINT LeftFinger22
                    {
                      OFFSET 0.0071 -2.3249 -0.0142
                      CHANNELS 3 Zrotation Xrotation Yrotation
                      End Site
                      {
                        OFFSET -0.1475 -2.0882 0.0028
                      }
                    }
                  }
                }
                JOINT LeftFinger3
                {
                  OFFSET 0.6113 -8.7231 -2.0637
                  CHANNELS 3 Zrotation Xrotation Yrotation
                  JOINT LeftFinger31
                  {
                    OFFSET -0.1927 -3.8059 -0.2383
                    CHANNELS 3 Zrotation Xrotation Yrotation
                    JOINT LeftFinger32
                    {
                      OFFSET -0.1091 -2.1688 -0.1362
                      CHANNELS 3 Zrotation Xrotation Yrotation
                      End Site
                      {
                        OFFSET -0.2358 -1.9176 -0.0906
                      }
                    }
                  }
                }
                JOINT LeftFinger4
                {
                  OFFSET -0.6151 -8.0947 -3.5641
                  CHANNELS 3 Zrotation Xrotation Yrotation
                  JOINT LeftFinger41
                  {
                    OFFSET -0.4882 -2.341 -0.6462
                    CHANNELS 3 Zrotation Xrotation Yrotation
                    JOINT LeftFinger42
                    {
                      OFFSET -0.3575 -1.7167 -0.4742
                      CHANNELS 3 Zrotation Xrotation Yrotation
                      End Site
                      {
                        OFFSET -0.4187 -1.5237 -0.3496
                      }
                    }
                  }
                }
                JOINT LeftFinger0
                {
                  OFFSET -1.42 -1.8761 1.4223
                  CHANNELS 3 Zrotation Xrotation Yrotation
                  JOINT LeftFinger01
                  {
                    OFFSET -1.1471 -3.4929 2.6334
                    CHANNELS 3 Zrotation Xrotation Yrotation
                    JOINT LeftFinger02
                    {
                      OFFSET -0.823 -2.3 1.6571
                      CHANNELS 3 Zrotation Xrotation Yrotation
                      End Site
                      {
                        OFFSET -0.5822 -1.6914 1.1582
                      }
                    }
                  }
                }
              }
            }
          }
        }
        JOINT RightCollar
        {
          OFFSET -2.2603 21.606 7.4023
          CHANNELS 3 Zrotation Xrotation Yrotation
          JOINT RightShoulder
          {
            OFFSET -13.5187 -1.1334 -5.0155
            CHANNELS 3 Zrotation Xrotation Yrotation
            JOINT RightElbow
            {
              OFFSET 0.0994 -28.0499 -0.2431
              CHANNELS 3 Zrotation Xrotation Yrotation
              JOINT RightWrist
              {
                OFFSET -0.0679 -23.3996 -0.1402
                CHANNELS 3 Zrotation Xrotation Yrotation
                JOINT RightFinger1
                {
                  OFFSET -0.7932 -9.0691 2.5189
                  CHANNELS 3 Zrotation Xrotation Yrotation
                  JOINT RightFinger11
                  {
                    OFFSET 0.8272 -3.3923 0.5977
                    CHANNELS 3 Zrotation Xrotation Yrotation
                    JOINT RightFinger12
                    {
                      OFFSET 0.565 -2.3158 0.4082
                      CHANNELS 3 Zrotation Xrotation Yrotation
                      End Site
                      {
                        OFFSET 0.4919 -1.6479 0.2673
                      }
                    }
                  }
                }
                JOINT RightFinger2
                {
                  OFFSET -0.916 -9.2044 0.2193
                  CHANNELS 3 Zrotation Xrotation Yrotation
                  JOINT RightFinger21
                  {
                    OFFSET -0.0117 -4.1944 -0.0248
                    CHANNELS 3 Zrotation Xrotation Yrotation
                    JOINT RightFinger22
                    {
                      OFFSET -0.0071 -2.3249 -0.0142
                      CHANNELS 3 Zrotation Xrotation Yrotation
                      End Site
                      {
                        OFFSET 0.1475 -2.0882 0.0028
                      }
                    }
                  }
                }
                JOINT RightFinger3
                {
                  OFFSET -0.6113 -8.7231 -2.0637
                  CHANNELS 3 Zrotation Xrotation Yrotation
                  JOINT RightFinger31
                  {
                    OFFSET 0.1927 -3.8059 -0.2383
                    CHANNELS 3 Zrotation Xrotation Yrotation
                    JOINT RightFinger32
                    {
                      OFFSET 0.1091 -2.1688 -0.1362
                      CHANNELS 3 Zrotation Xrotation Yrotation
                      End Site
                      {
                        OFFSET 0.2358 -1.9176 -0.0906
                      }
                    }
                  }
                }
                JOINT RightFinger4
                {
                  OFFSET 0.6151 -8.0947 -3.564
                  CHANNELS 3 Zrotation Xrotation Yrotation
                  JOINT RightFinger41
                  {
                    OFFSET 0.4882 -2.341 -0.6462
                    CHANNELS 3 Zrotation Xrotation Yrotation
                    JOINT RightFinger42
                    {
                      OFFSET 0.3574 -1.7166 -0.4742
                      CHANNELS 3 Zrotation Xrotation Yrotation
                      End Site
                      {
                        OFFSET 0.4187 -1.5237 -0.3496
                      }
                    }
                  }
                }
                JOINT RightFinger0
                {
                  OFFSET 1.4199 -1.8761 1.4221
                  CHANNELS 3 Zrotation Xrotation Yrotation
                  JOINT RightFinger01
                  {
                    OFFSET 1.1472 -3.4929 2.6336
                    CHANNELS 3 Zrotation Xrotation Yrotation
                    JOINT RightFinger02
                    {
                      OFFSET 0.8229 -2.3 1.6571
                      CHANNELS 3 Zrotation Xrotation Yrotation
                      End Site
                      {
                        OFFSET 0.5822 -1.6914 1.1582
                      }
                    }
                  }
                }
              }
            }
          }
        }
      }
    }
  }
  JOINT RightHip
  {
    OFFSET -9.412 3.9771 -0.7758
    CHANNELS 3 Zrotation Xrotation Yrotation
    JOINT RightKnee
    {
      OFFSET -0.7531 -40.938 0
      CHANNELS 3 Zrotation Xrotation Yrotation
      JOINT RightAnkle
      {
        OFFSET 0 -40.1986 0
        CHANNELS 3 Zrotation Xrotation Yrotation
        JOINT RightToe
        {
          OFFSET 0 -4.4182 9.239
          CHANNELS 3 Zrotation Xrotation Yrotation
          End Site
          {
            OFFSET 0 0 6.1981
          }
        }
      }
    }
  }
  JOINT LeftHip
  {
    OFFSET 9.4119 3.9773 -0.7758
    CHANNELS 3 Zrotation Xrotation Yrotation
    JOINT LeftKnee
    {
      OFFSET 0.7532 -40.9383 0
      CHANNELS 3 Zrotation Xrotation Yrotation
      JOINT LeftAnkle
      {
        OFFSET 0 -40.1986 0
        CHANNELS 3 Zrotation Xrotation Yrotation
        JOINT LeftToe
        {
          OFFSET 0 -4.4182 9.239
          CHANNELS 3 Zrotation Xrotation Yrotation
          End Site
          {
            OFFSET 0 0 6.1981
          }
        }
      }
    }
  }
}
MOTION
Frames:	6
Frame Time:	0.0333333
1.54929 43.6116 22.1729 0.00371471 85.295 180 -0.633184 -3.84525 -0.15903 -1.28143 -7.6885 -0.36198 -1.28144 -7.68852 -0.361982 -4.09639e-006 30.2643 -4.23734e-007 9.31503e-008 -32.8468 -4.2027e-007 15.3467 10.4751 1.77475 96.3013 72.1543 -28.0942 1.17717 -0.0202706 -30.4093 60.7381 -7.71723 7.29115 5.29669e-031 9.54166e-015 -3.18055e-015 -6.36111e-015 9.54166e-015 3.18055e-015 -1.27222e-014 0 -6.36111e-015 5.29669e-031 9.54166e-015 -3.18055e-015 -0.0128254 0.00231548 7.99031e-005 3.18055e-015 -9.54166e-015 -0 5.29669e-031 9.54166e-015 -3.18055e-015 -0.0159978 0.00298731 0.000852441 -2.11868e-030 1.27222e-014 9.54166e-015 5.29669e-031 9.54166e-015 -3.18055e-015 -0.0126244 0.00312572 0.00283043 -3.18055e-015 0 3.18055e-015 5.29669e-031 9.54166e-015 -3.18055e-015 -6.36111e-015 9.54166e-015 3.18055e-015 -1.27222e-014 0 -6.36111e-015 -16.7202 10.9302 -8.21875 -96.9461 66.2502 29.2052 -1.29987 -0.0376644 30.4437 -61.1024 -7.14184 -8.36309 -5.81704e-006 -7.14521e-006 4.94082e-006 6.36111e-015 -3.18055e-015 -1.59028e-015 -2.64834e-031 -3.18055e-015 -4.77083e-015 -5.81704e-006 -7.14521e-006 4.94082e-006 0.0129244 0.00231891 -8.41636e-005 9.54166e-015 -3.18055e-015 -0 -5.81704e-006 -7.14521e-006 4.94082e-006 0.0163168 0.00302641 -0.000877265 5.60464e-006 -8.10335e-007 4.20285e-006 -5.81704e-006 -7.14521e-006 4.94082e-006 0.0145594 0.00366632 -0.00325575 6.36111e-015 0 3.18055e-015 -5.81704e-006 -7.14521e-006 4.94082e-006 6.36111e-015 -3.18055e-015 -1.59028e-015 -2.64834e-031 -3.18055e-015 -4.77083e-015 -46.7798 18.3251 -48.3783 -71.0935 54.2256 71.1121 -4.86897 16.1127 29.8746 -1.40946e-006 2.03606e-007 1.08282e-006 49.0036 18.5237 48.4404 68.8288 54.0708 -69.269 6.13432 17.324 -32.3477 1.06819e-005 -1.56347e-006 -7.21571e-006 
1.54874 43.6205 21.9792 0.00371521 85.5455 180 -0.632661 -3.7326 -0.156662 -1.27965 -7.46327 -0.355855 -1.27966 -7.46328 -0.355856 -8.84737e-006 30.6905 -2.06957e-006 -3.43566e-007 -32.8724 3.43572e-007 15.3908 10.4451 2.32329 96.0646 71.6787 -27.8757 1.24098 -0.0317616 -30.4063 60.4745 -7.7356 7.36609 3.18055e-015 0 -9.54166e-015 3.18055e-015 3.18055e-015 -0 -1.05934e-030 -6.36111e-015 -9.54166e-015 3.18055e-015 0 -9.54166e-015 -0.0128738 0.00232935 8.28899e-005 -3.53113e-031 -3.18055e-015 -6.36111e-015 3.18055e-015 0 -9.54166e-015 -0.0160676 0.00299888 0.000853775 -1.41245e-030 2.54444e-014 3.18055e-015 3.18055e-015 0 -9.54166e-015 -0.0126394 0.00313592 0.00283396 -3.18055e-015 3.18055e-015 -3.18055e-015 3.18055e-015 0 -9.54166e-015 3.18055e-015 3.18055e-015 -0 -1.05934e-030 -6.36111e-015 -9.54166e-015 -16.7525 10.9147 -8.87071 -96.7133 65.6682 28.9863 -1.35953 -0.0483114 30.4393 -60.8082 -7.14016 -8.4086 -4.73629e-006 6.47038e-006 4.01538e-006 3.55222e-006 -5.66174e-006 -3.01154e-006 -3.55222e-006 6.69663e-006 3.01154e-006 -4.73629e-006 6.47038e-006 4.01538e-006 0.0129653 0.00231502 -7.54063e-005 1.14872e-005 9.42331e-006 -5.25151e-006 -4.73629e-006 6.47038e-006 4.01538e-006 0.0163214 0.00303066 -0.000872846 2.20721e-006 -2.2523e-007 2.60597e-006 -4.73629e-006 6.47038e-006 4.01538e-006 0.01458 0.00368153 -0.0032646 9.91694e-006 -1.0963e-006 9.5065e-006 -4.73629e-006 6.47038e-006 4.01538e-006 3.55222e-006 -5.66174e-006 -3.01154e-006 -3.55222e-006 6.69663e-006 3.01154e-006 -46.545 18.4213 -47.751 -71.4188 54.2096 71.384 -4.2188 16.0051 29.4496 -4.80017e-006 -1.86506e-006 1.34411e-006 48.7774 18.582 47.7341 69.0798 54.0438 -69.4836 5.4156 17.3166 -31.8934 -3.64157e-007 1.97495e-006 1.49853e-006 
1.54819 43.6293 21.7857 0.00370784 85.796 -180 -0.632141 -3.62 -0.1543 -1.27791 -7.23804 -0.349752 -1.27791 -7.23806 -0.349753 -5.71634e-006 31.116 -1.5175e-006 -9.55319e-007 -32.8981 -1.1266e-006 15.4345 10.4178 2.87186 95.8397 71.203 -27.6688 1.3047 -0.0433359 -30.4035 60.2109 -7.75429 7.44094 -6.36111e-015 6.36111e-015 3.18055e-015 -7.06225e-031 1.27222e-014 3.18055e-015 -3.18055e-015 6.36111e-015 -0 -6.36111e-015 6.36111e-015 3.18055e-015 -0.0128449 0.00232639 8.11707e-005 -3.18055e-015 0 -0 -6.36111e-015 6.36111e-015 3.18055e-015 -0.0161047 0.00300965 0.000849466 -6.36111e-015 6.36111e-015 -0 -6.36111e-015 6.36111e-015 3.18055e-015 -0.0126152 0.00312951 0.0028292 -3.18055e-015 0 -0 -6.36111e-015 6.36111e-015 3.18055e-015 -7.06225e-031 1.27222e-014 3.18055e-015 -3.18055e-015 6.36111e-015 -0 -16.785 10.8997 -9.52255 -96.4908 65.086 28.7779 -1.41929 -0.0589511 30.4348 -60.5139 -7.13877 -8.45408 3.18055e-015 0 1.59028e-015 3.18055e-015 -3.18055e-015 -1.59028e-015 3.53113e-031 -6.36111e-015 3.18055e-015 3.18055e-015 0 1.59028e-015 0.0129143 0.00231084 -7.79971e-005 -6.36111e-015 -9.54166e-015 9.54166e-015 3.18055e-015 0 1.59028e-015 0.0163156 0.0030355 -0.000868231 6.66877e-006 8.16096e-006 -1.1194e-006 3.18055e-015 0 1.59028e-015 0.0146153 0.00368893 -0.00326747 -3.18055e-015 3.18055e-015 1.59028e-015 3.18055e-015 0 1.59028e-015 3.18055e-015 -3.18055e-015 -1.59028e-015 3.53113e-031 -6.36111e-015 3.18055e-015 -46.3115 18.5199 -47.1239 -71.7441 54.1927 71.6558 -3.57003 15.8928 29.0262 -1.51102e-006 9.61124e-007 -6.18102e-007 48.552 18.6428 47.0281 69.3308 54.0164 -69.6982 4.69712 17.3036 -31.4391 3.64613e-007 -2.6053e-006 -1.49825e-006 
1.54763 43.6381 21.5923 0.00370798 86.0465 180 -0.63163 -3.50738 -0.151943 -1.27619 -7.01286 -0.343667 -1.27619 -7.01288 -0.343667 -2.6297e-006 31.5409 -6.95144e-007 -4.90539e-007 -32.9238 -1.56294e-007 15.4788 10.3901 3.42028 95.6251 70.727 -27.4723 1.36845 -0.0548342 -30.4009 59.9473 -7.77331 7.51568 3.18055e-015 0 -3.18055e-015 6.36111e-015 6.36111e-015 3.18055e-015 5.29669e-031 9.54166e-015 -3.18055e-015 3.18055e-015 0 -3.18055e-015 -0.0128206 0.00231346 7.91732e-005 3.18055e-015 -3.18055e-015 -0 3.18055e-015 0 -3.18055e-015 -0.0160691 0.00299446 0.000860723 -9.71385e-006 2.52034e-006 -4.86554e-006 3.18055e-015 0 -3.18055e-015 -0.0125203 0.00310111 0.00281171 -3.18055e-015 2.5828e-007 -3.18055e-015 3.18055e-015 0 -3.18055e-015 6.36111e-015 6.36111e-015 3.18055e-015 5.29669e-031 9.54166e-015 -3.18055e-015 -16.8176 10.8851 -10.1742 -96.2781 64.5035 28.5792 -1.47901 -0.0697027 30.4307 -60.2197 -7.13753 -8.49951 -3.18055e-015 9.54166e-015 -6.36111e-015 0 0 -3.18055e-015 -3.18055e-015 1.27222e-014 -1.59028e-015 -3.18055e-015 9.54166e-015 -6.36111e-015 0.0130069 0.00232237 -8.08333e-005 -9.54166e-015 -1.90833e-014 -1.11319e-014 -3.18055e-015 9.54166e-015 -6.36111e-015 0.0163112 0.00302492 -0.000864232 6.5152e-006 -1.31313e-006 7.94053e-006 -3.18055e-015 9.54166e-015 -6.36111e-015 0.0145672 0.00367744 -0.00325318 -3.18055e-015 0 -1.59028e-015 -3.18055e-015 9.54166e-015 -6.36111e-015 0 0 -3.18055e-015 -3.18055e-015 1.27222e-014 -1.59028e-015 -46.0792 18.6209 -46.4971 -72.0693 54.175 71.9276 -2.92272 15.7757 28.6042 -2.91983e-006 -3.86452e-006 4.6611e-007 48.3275 18.7063 46.3223 69.5816 53.9885 -69.9125 3.97904 17.285 -30.9851 -1.14783e-006 4.82237e-007 -2.11171e-006 
1.54707 43.6469 21.399 0.0037079 86.297 180 -0.631125 -3.39479 -0.149591 -1.27451 -6.78768 -0.3376 -1.27451 -6.78767 -0.3376 9.52103e-007 31.965 -2.31246e-007 1.36705e-006 -32.9494 1.05776e-006 15.5235 10.3618 3.96851 95.4204 70.2509 -27.2857 1.4322 -0.066378 -30.3984 59.6838 -7.79266 7.59031 6.36111e-015 -5.12358e-007 -6.36111e-015 -4.06584e-006 -4.55347e-006 -5.72125e-006 -6.36111e-015 3.18055e-015 -0 6.36111e-015 -5.12358e-007 -6.36111e-015 -0.012828 0.00232975 9.14467e-005 -5.29669e-031 9.54166e-015 3.18055e-015 6.36111e-015 -5.12358e-007 -6.36111e-015 -0.0160525 0.00299639 0.000856154 3.18055e-015 0 3.18055e-015 6.36111e-015 -5.12358e-007 -6.36111e-015 -0.0125539 0.00310722 0.00281406 0 0 -3.18055e-015 6.36111e-015 -5.12358e-007 -6.36111e-015 -4.06584e-006 -4.55347e-006 -5.72125e-006 -6.36111e-015 3.18055e-015 -0 -16.8503 10.8708 -10.8257 -96.0745 63.9209 28.3896 -1.53872 -0.0803645 30.4267 -59.9254 -7.13654 -8.54496 -3.18055e-015 -9.54166e-015 1.59028e-015 -9.2955e-007 3.38612e-006 -3.73414e-006 -8.70576e-006 -4.9019e-006 -1.05728e-005 -3.18055e-015 -9.54166e-015 1.59028e-015 0.0129995 0.00232608 -8.8222e-005 -8.62485e-006 -2.38051e-006 -1.06883e-005 -3.18055e-015 -9.54166e-015 1.59028e-015 0.0163383 0.00303808 -0.000882002 -6.36111e-015 -9.54166e-015 -1.59028e-015 -3.18055e-015 -9.54166e-015 1.59028e-015 0.0145174 0.0036663 -0.00325508 -7.19207e-006 -7.54205e-006 6.14167e-006 -3.18055e-015 -9.54166e-015 1.59028e-015 -9.2955e-007 3.38612e-006 -3.73414e-006 -8.70576e-006 -4.9019e-006 -1.05728e-005 -45.8481 18.7244 -45.8707 -72.3944 54.1566 72.1991 -2.27702 15.654 28.184 -1.51116e-006 2.68604e-007 -6.18416e-007 48.1039 18.7724 45.617 69.8322 53.9602 -70.1267 3.26148 17.2609 -30.5314 1.51285e-006 2.68896e-007 6.14227e-007 
1.54651 43.6556 21.2059 0.00370893 86.5475 180 -0.630617 -3.28217 -0.147244 -1.27283 -6.56247 -0.331548 -1.27283 -6.56247 -0.331548 -1.16907e-005 32.3883 -3.54923e-006 9.28358e-007 -32.975 9.7644e-008 15.5689 10.3328 4.51654 95.225 69.7746 -27.1084 1.49593 -0.0779382 -30.3961 59.4203 -7.81233 7.66483 3.18055e-015 0 -9.54166e-015 -3.02555e-006 2.00945e-006 3.62207e-006 1.68155e-005 -1.22159e-005 -3.3358e-006 3.18055e-015 0 -9.54166e-015 -0.0128037 0.00232679 8.90514e-005 6.36111e-015 0 -6.36111e-015 3.18055e-015 0 -9.54166e-015 -0.0160002 0.00298124 0.000863737 -3.12046e-006 -3.53823e-006 -7.29855e-006 3.18055e-015 0 -9.54166e-015 -0.0126242 0.00313037 0.00284731 3.18055e-015 -3.18055e-015 6.36111e-015 3.18055e-015 0 -9.54166e-015 -3.02555e-006 2.00945e-006 3.62207e-006 1.68155e-005 -1.22159e-005 -3.3358e-006 -16.8833 10.8567 -11.4769 -95.8793 63.3381 28.2085 -1.59844 -0.0910467 30.4229 -59.6312 -7.13578 -8.59038 3.18055e-015 6.36111e-015 -7.95139e-015 0 0 -6.36111e-015 1.78031e-007 1.46089e-006 -4.62679e-006 3.18055e-015 6.36111e-015 -7.95139e-015 0.0129498 0.00232854 -9.09288e-005 1.18559e-006 -4.20205e-006 -1.0047e-006 3.18055e-015 6.36111e-015 -7.95139e-015 0.0162738 0.00303146 -0.000880249 -5.49569e-006 8.17266e-007 -4.35475e-006 3.18055e-015 6.36111e-015 -7.95139e-015 0.0146254 0.00369622 -0.00327745 -1.77978e-007 -1.49491e-006 4.6267e-006 3.18055e-015 6.36111e-015 -7.95139e-015 0 0 -6.36111e-015 1.78031e-007 1.46089e-006 -4.62679e-006 -45.6183 18.8301 -45.2448 -72.7192 54.1374 72.4702 -1.63303 15.5277 27.7656 2.65658e-007 -4.45466e-007 -3.20105e-006 47.8812 18.8411 44.9121 70.0826 53.9314 -70.3406 2.54457 17.2312 -30.0782 1.51286e-006 -6.08458e-007 6.14677e-007 
